# AST/ASF file generated using VICON BodyLanguage
# -----------------------------------------------
:version 1.10
:name VICON
:units
  mass 1.0
  length 0.45
  angle deg
:documentation
   .ast/.asf automatically generated from VICON data using
   VICON BodyBuilder and BodyLanguage model FoxedUp or BRILLIANT.MOD
:root
   order TX TY TZ RX RY RZ
   axis XYZ
   position 0 0 0  
   orientation 0 -0 0 
:bonedata
  begin
     id 1 
     name lhipjoint
     direction 0.515797 -0.759363 0.396637 
     length 2.47888 
     axis 0 -0 0  XYZ
  end
  begin
     id 2 
     name lfemur
     direction 0.34202 -0.939693 0  
     length 6.81885  
     axis 0 -0 20  XYZ
    dof rx ry rz
    limits (-160.0 20.0)
           (-70.0 70.0)
           (-60.0 70.0)
  end
  begin
     id 3 
     name ltibia
     direction 0.342037 -0.939687 0   
     length 7.89258   
     axis 0 -0 20   XYZ
    dof rx
    limits (-10.0 170.0)
  end
  begin
     id 4 
     name lfoot
     direction 0.173497 -0.476678 0.861787   
     length 2.51543   
     axis -90 -1.13533e-015 20   XYZ
    dof rx rz
    limits (-45.0 90.0)
           (-70.0 20.0)
  end
  begin
     id 5 
     name ltoes
     direction 1.53564e-011 -4.21897e-011 1   
     length 1.21388   
     axis -90 -1.13533e-015 20   XYZ
    dof rx
    limits (-90.0 20.0)
  end
  begin
     id 6 
     name rhipjoint
     direction -0.489454 -0.772941 0.403729   
     length 2.43534  
     axis 0 -0 0  XYZ 
  end
  begin
     id 7 
     name rfemur
     direction -0.34202 -0.939693 0   
     length 7.10357   
     axis 0 -0 -20   XYZ
    dof rx ry rz
    limits (-160.0 20.0)
           (-70.0 70.0)
           (-70.0 60.0)
  end
  begin
     id 8 
     name rtibia
     direction -0.34202 -0.939693 0   
     length 9.16127   
     axis 0 -0 -20   XYZ
    dof rx
    limits (-10.0 170.0)
 end
 begin
     id 9 
     name rfoot
     direction -0.270974 -0.748671 0.605033   
     length 1.74894  
     axis -90 1.13533e-015 -20   XYZ
    dof rx rz
    limits (-45.0 90.0)
           (-20.0 70.0)
  end
  begin
     id 10 
     name rtoes
     direction -1.53557e-011 -4.21759e-011 1   
     length 0.787585   
     axis -90 1.13533e-015 -20   XYZ
    dof rx
    limits (-90.0 20.0)
  end
  begin
     id 11 
     name lowerback
     direction -0.0140249 0.999561 0.0260968   
     length 2.16963   
     axis 0 -0 0   XYZ
    dof rx ry rz
    limits (-20.0 45.0)
           (-30.0 30.0)
           (-30.0 30.0)
  end
  begin
     id 12 
     name upperback
     direction 0.00860018 0.999959 -0.002711   
     length 2.1726   
     axis 0 -0 0   XYZ
    dof rx ry rz
    limits (-20.0 45.0)
           (-30.0 30.0)
           (-30.0 30.0)
  end
  begin
     id 13 
     name thorax
     direction 0.015211 0.999782 -0.0143191   
     length 2.17061   
     axis 0 -0 0   XYZ
    dof rx ry rz
    limits (-20.0 45.0)
           (-30.0 30.0)
           (-30.0 30.0)
  end
  begin
     id 14 
     name lowerneck
     direction -0.0140143 0.999447 0.030145   
     length 2.26749   
     axis 0 -0 0   XYZ
    dof rx ry rz
    limits (-20.0 45.0)
           (-30.0 30.0)
           (-30.0 30.0)
  end
  begin
     id 15 
     name upperneck
     direction 0.118062 0.961438 -0.248392   
     length 2.22728   
     axis 0 -0 0   XYZ
    dof rx ry rz
    limits (-20.0 45.0)
           (-30.0 30.0)
           (-30.0 30.0)
  end
  begin
     id 16
     name head
     direction 0.0431885 0.9954 -0.085514  
     length 2.28786  
     axis 0 -0 0   XYZ
    dof rx ry rz
    limits (-20.0 45.0)
           (-30.0 30.0)
           (-30.0 30.0)
  end
  begin
     id 17 
     name lclavicle
     direction 0.912126 0.409548 0.0172323  
     length 4.31571  
     axis 0 -0 0   XYZ
    dof ry rz
    limits (-20.0 10.0)
           (0.0 20.0)
  end
  begin
     id 18 
     name lhumerus
     direction 1 -4.48977e-011 1.93091e-027   
     length 5.13658   
     axis 180 -30 -90   XYZ
    dof rx ry rz
    limits (-60.0 90.0)
           (-90.0 90.0)
           (-90.0 90.0)
  end
  begin
     id 19
     name lradius
     direction 1 -4.48916e-011 6.84018e-027   
     length 3.22473   
     axis 180 -30 -90   XYZ
    dof rx
    limits (-10.0 170.0)
  end
  begin
     id 20
     name lwrist
     direction 1 -4.48987e-011 7.01981e-027   
     length 1.61236   
     axis -4.37994e-015 90 90   XYZ
    dof ry
    limits (-180.0 0.0)
 end
  begin
     id 21 
     name lhand
     direction 1 -4.49037e-011 1.40335e-026   
     length 0.936406   
     axis -8.96029e-015 90 90   XYZ
    dof rx rz
    limits (-90.0 90.0)
           (-45.0 45.0)
  end
  begin
     id 22 
     name lfingers
     direction 1 -4.48886e-011 2.8104e-026   
     length 0.754955   
     axis -1.79203e-014 90 90   XYZ
    dof rx
    limits (0.0 90.0)
  end
  begin
     id 23
     name lthumb
     direction 0.707107 -6.34937e-011 0.707107   
     length 1.08397   
     axis -90 45 -4.48555e-014   XYZ
    dof rx rz
    limits (-45.0 45.0)
           (-45.0 45.0)
  end
  begin
     id 24 
     name rclavicle
     direction -0.947962 0.317997 0.0156638   
     length 4.86918  
     axis 0 -0 0   XYZ 
    dof ry rz
    limits (-10.0 20.0)
           (-20.0 0.0)
  end
  begin
     id 25 
     name rhumerus
     direction -1 -4.48951e-011 2.80534e-018  
     length 5.60911   
     axis 180 30 90   XYZ
    dof rx ry rz
    limits (-90.0 60.0)
           (-90.0 90.0)
           (-90.0 90.0)
  end
  begin
     id 26 
     name rradius
     direction -1 -4.4898e-011 2.11315e-027   
     length 3.38704   
     axis 180 30 90   XYZ
    dof rx
    limits (-10.0 170.0)
  end
  begin
     id 27 
     name rwrist
     direction -1 -4.48933e-011 7.02314e-027   
     length 1.69352   
     axis -4.37994e-015 -90 -90   XYZ
    dof ry
    limits (-180.0 0.0)
  end
  begin
     id 28
     name rhand
     direction -1 -4.48937e-011 1.40458e-026   
     length 0.755878   
     axis -8.96029e-015 -90 -90   XYZ
    dof rx rz
    limits (-90.0 90.0)
           (-45.0 45.0)
  end
  begin
     id 29
     name rfingers
     direction -1 -4.4901e-011 2.80737e-026   
     length 0.609409   
     axis -1.79203e-014 -90 -90   XYZ
    dof rx
    limits (0.0 90.0)
  end
  begin
     id 30
     name rthumb
     direction -0.707107 -6.34968e-011 0.707107   
     length 0.874992   
     axis -90 -45 4.48555e-014   XYZ
    dof rx rz
    limits (-45.0 45.0)
           (-45.0 45.0)
  end
:hierarchy
  begin
    root lhipjoint rhipjoint lowerback
    lhipjoint lfemur
    lfemur ltibia
    ltibia lfoot
    lfoot ltoes
    rhipjoint rfemur
    rfemur rtibia
    rtibia rfoot
    rfoot rtoes
    lowerback upperback
    upperback thorax
    thorax lowerneck lclavicle rclavicle
    lowerneck upperneck
    upperneck head
    lclavicle lhumerus
    lhumerus lradius
    lradius lwrist
    lwrist lhand lthumb
    lhand lfingers
    rclavicle rhumerus
    rhumerus rradius
    rradius rwrist
    rwrist rhand rthumb
    rhand rfingers
  end

#!OML:ASF C:\ViconDB\ViconDB\414\Spring2016\041811\Spring2016.ASF
:FULLY-SPECIFIED
:DEGREES
137
root 10.8211 18.049 -4.91193 -182.076 -3.22832 -176.287
lowerback 4.55519 1.14142 2.64425
upperback 2.37497 1.456 2.37945
thorax -0.105387 0.658196 0.893546
lowerneck -9.9971 -3.94343 -10.5842
upperneck 15.1021 -7.37136 16.6703
head 7.2603 -3.19549 6.54195
rclavicle -1.19022e-014 -1.31198e-014
rhumerus -37.8183 -14.5837 -86.0881
rradius 36.4141
rwrist 36.9907
rhand -34.9445 -14.6865
rfingers 7.12502
rthumb -8.09125 -44.5116
lclavicle -1.19022e-014 -1.31198e-014
lhumerus -38.2364 2.15578 87.7477
lradius 21.1843
lwrist -37.204
lhand -27.9321 16.1785
lfingers 7.12502
lthumb -1.32031 46.1541
rfemur 165.137 61.0728 -157.177
rtibia 33.2169
rfoot -71.0309 -47.5336
rtoes 8.34896e-014
lfemur -15.8256 7.00226 -10.3239
ltibia 63.9324
lfoot -8.83444 3.7277
ltoes -1.81292e-013
138
root 10.8358 18.0551 -5.0082 -182.069 -2.92493 -176.574
lowerback 4.79796 1.30923 2.57229
upperback 2.31294 1.70064 2.15594
thorax -0.299392 0.784787 0.687003
lowerneck -9.8616 -3.96049 -10.3342
upperneck 15.0088 -7.42508 16.589
head 7.202 -3.22272 6.4621
rclavicle 2.57178e-014 1.90833e-014
rhumerus -37.7039 -14.4922 -86.2693
rradius 36.5917
rwrist 36.8628
rhand -34.9907 -14.2892
rfingers 7.12502
rthumb -8.13579 -44.1126
lclavicle 2.57178e-014 1.90833e-014
lhumerus -38.5839 1.76084 87.6454
lradius 21.3306
lwrist -36.7777
lhand -27.8092 16.3293
lfingers 7.12502
lthumb -1.20162 46.3057
rfemur 164.414 61.7927 -157.941
rtibia 33.3153
rfoot -72.2237 -47.2693
rtoes -1.33583e-013
lfemur -17.0332 7.45619 -10.7944
ltibia 63.8736
lfoot -9.64276 4.17708
ltoes -1.59028e-013
139
root 10.8587 18.0599 -5.10678 -182.106 -2.78711 -176.564
lowerback 5.01381 1.38604 2.59981
upperback 2.30058 1.81196 2.1374
thorax -0.430071 0.838844 0.641832
lowerneck -9.80524 -3.99263 -10.4366
upperneck 14.8871 -7.46046 16.709
head 7.16701 -3.24132 6.51601
rclavicle 2.14687e-014 -2.18663e-014
rhumerus -37.4162 -14.0524 -86.4483
rradius 36.7094
rwrist 36.4383
rhand -34.9007 -13.965
rfingers 7.12502
rthumb -8.04894 -43.7918
lclavicle 2.14687e-014 -2.18663e-014
lhumerus -38.8216 2.19306 87.32
lradius 21.3523
lwrist -36.9525
lhand -27.6879 15.9347
lfingers 7.12502
lthumb -1.08446 45.9117
rfemur 163.593 62.6739 -158.463
rtibia 33.4089
rfoot -73.3609 -46.8831
rtoes 1.20861e-013
lfemur -18.1999 7.63694 -10.9186
ltibia 63.5689
lfoot -10.4578 4.52397
ltoes 2.03555e-013
140
root 10.873 18.0576 -5.20516 -182.105 -2.59319 -176.679
lowerback 5.14524 1.51111 2.5766
upperback 2.3222 1.9819 2.07644
thorax -0.478442 0.923633 0.580347
lowerneck -9.73938 -4.06369 -10.5292
upperneck 14.7158 -7.54792 16.8441
head 7.12312 -3.28431 6.5667
rclavicle 1.78906e-014 -1.70955e-014
rhumerus -37.0742 -13.4709 -86.6727
rradius 36.8552
rwrist 35.7165
rhand -35.2337 -14.2268
rfingers 7.12502
rthumb -8.37035 -44.0409
lclavicle 1.78906e-014 -1.70955e-014
lhumerus -39.0879 1.85759 87.394
lradius 21.5546
lwrist -36.7652
lhand -27.6718 16.1358
lfingers 7.12502
lthumb -1.06894 46.1129
rfemur 162.754 63.605 -159.157
rtibia 33.5546
rfoot -74.6517 -46.6328
rtoes 2.06736e-014
lfemur -19.3041 7.8236 -11.2322
ltibia 63.0208
lfoot -11.3864 4.80584
ltoes 3.435e-013
141
root 10.8878 18.0585 -5.30796 -182.032 -2.38902 -176.724
lowerback 5.12447 1.618 2.54554
upperback 2.34831 2.12044 2.07158
thorax -0.439877 0.992817 0.586425
lowerneck -9.69193 -4.11447 -10.624
upperneck 14.5507 -7.56945 16.8544
head 7.06972 -3.29882 6.5818
rclavicle -1.01877e-015 1.94809e-014
rhumerus -36.7845 -13.2466 -86.7104
rradius 37.0371
rwrist 35.7835
rhand -35.1382 -14.2159
rfingers 7.12502
rthumb -8.27813 -44.0337
lclavicle -1.01877e-015 1.94809e-014
lhumerus -39.2466 1.92425 87.3786
lradius 21.6878
lwrist -36.5168
lhand -27.1894 16.0586
lfingers 7.12502
lthumb -0.603056 46.0375
rfemur 162.05 64.6829 -159.673
rtibia 33.6889
rfoot -76.0641 -46.3794
rtoes 5.64548e-014
lfemur -20.4245 7.89815 -11.5004
ltibia 62.2523
lfoot -12.2018 5.15647
ltoes -6.36111e-014
142
root 10.8995 18.0546 -5.40812 -182.031 -2.23336 -176.823
lowerback 5.22947 1.69398 2.59178
upperback 2.38302 2.22564 1.99347
thorax -0.456819 1.0458 0.472482
lowerneck -9.72368 -4.16588 -10.7228
upperneck 14.4992 -7.61194 16.8835
head 7.07082 -3.31886 6.60348
rclavicle -1.30949e-014 -7.55382e-015
rhumerus -36.4666 -13.0399 -86.7328
rradius 37.1975
rwrist 35.7943
rhand -34.8478 -14.0364
rfingers 7.12502
rthumb -7.99789 -43.8651
lclavicle -1.30949e-014 -7.55382e-015
lhumerus -39.4394 1.96851 87.2459
lradius 21.8105
lwrist -36.4147
lhand -27.1494 15.9014
lfingers 7.12502
lthumb -0.564351 45.8804
rfemur 161.085 65.77 -160.489
rtibia 33.8595
rfoot -77.6317 -46.06
rtoes -9.30312e-014
lfemur -21.4124 7.8411 -11.8385
ltibia 61.2721
lfoot -12.8214 5.59645
ltoes -1.27222e-013
143
root 10.9093 18.0541 -5.51104 -181.961 -2.05831 -176.93
lowerback 5.17913 1.78276 2.54117
upperback 2.43976 2.33617 1.97152
thorax -0.370523 1.10127 0.475027
lowerneck -9.75285 -4.2007 -10.9132
upperneck 14.4003 -7.61964 16.9851
head 7.05757 -3.3223 6.66957
rclavicle -1.04113e-014 -5.96354e-015
rhumerus -36.0472 -12.7013 -86.8252
rradius 37.2395
rwrist 35.4826
rhand -35.1441 -14.3646
rfingers 7.12502
rthumb -8.28387 -44.1822
lclavicle -1.04113e-014 -5.96354e-015
lhumerus -39.5166 2.35998 87.0394
lradius 21.8258
lwrist -36.8794
lhand -27.1501 15.9223
lfingers 7.12502
lthumb -0.56502 45.9013
rfemur 160.221 66.7856 -161.261
rtibia 34.0095
rfoot -79.0344 -45.8357
rtoes 1.44715e-013
lfemur -22.3612 7.78352 -12.2067
ltibia 60.0831
lfoot -13.5253 6.07814
ltoes 2.76708e-013
144
root 10.9201 18.0482 -5.61395 -181.884 -1.92418 -176.914
lowerback 5.15322 1.84869 2.65333
upperback 2.47664 2.42527 1.92673
thorax -0.310376 1.14703 0.363613
lowerneck -9.79565 -4.2466 -10.788
upperneck 14.3195 -7.63471 16.7913
head 7.03001 -3.32839 6.57608
rclavicle 1.35174e-014 -5.1684e-015
rhumerus -35.639 -12.4506 -86.9489
rradius 37.4247
rwrist 34.918
rhand -34.7984 -14.0642
rfingers 7.12502
rthumb -7.95018 -43.8947
lclavicle 1.35174e-014 -5.1684e-015
lhumerus -39.6046 2.62612 86.8233
lradius 21.8482
lwrist -36.9042
lhand -27.1142 15.8129
lfingers 7.12502
lthumb -0.530351 45.792
rfemur 159.366 68.0216 -161.89
rtibia 34.1527
rfoot -80.6736 -45.5569
rtoes 5.56597e-015
lfemur -23.2947 7.62275 -12.4067
ltibia 58.7132
lfoot -14.1643 6.60477
ltoes 0
